<?xml version="1.0" encoding="utf-8"?>
<!-- Generator: Adobe Illustrator 23.0.1, SVG Export Plug-In . SVG Version: 6.00 Build 0)  -->
<svg version="1.1" id="Layer_1" xmlns="http://www.w3.org/2000/svg" xmlns:xlink="http://www.w3.org/1999/xlink" x="0px" y="0px"
	 viewBox="0 0 841.89 595.28" style="enable-background:new 0 0 841.89 595.28;" xml:space="preserve">
<style type="text/css">
	.st0{fill:#264472;}
	.st1{fill:#4673B9;}
	.st2{fill-rule:evenodd;clip-rule:evenodd;fill:#3C64A1;}
	.st3{fill-rule:evenodd;clip-rule:evenodd;fill:#4673B9;}
	.st4{fill-rule:evenodd;clip-rule:evenodd;fill:#264472;}
	.st5{fill-rule:evenodd;clip-rule:evenodd;fill:#FFFFFF;}
	.st6{fill:#FFFFFF;}
</style>
<g>
	<g>
		<path class="st0" d="M291.9,448.7c-1.97,0-3.34-0.34-4.12-1.01c-0.78-0.67-1.17-1.98-1.17-3.91v-23.81c0-2.03,0.39-3.45,1.17-4.26
			c0.78-0.81,2.19-1.22,4.22-1.22h6.37c3.09,0,5.72,0.64,7.87,1.92c2.62,1.53,3.94,3.73,3.94,6.61c0,3.72-1.34,6.23-4.03,7.55v0.14
			c2,0.63,3.44,1.54,4.31,2.74c0.87,1.2,1.31,2.85,1.31,4.94c0,3.47-1.2,6.11-3.61,7.92c-2.13,1.59-4.98,2.39-8.58,2.39H291.9z
			 M294.39,421.14v6.7h3.37c1.53,0,2.61-0.19,3.23-0.56c0.87-0.5,1.31-1.44,1.31-2.81c0-2.22-1.52-3.33-4.55-3.33H294.39z
			 M294.39,433.94V442h3.89c1.66,0,2.89-0.22,3.7-0.66c1.06-0.59,1.59-1.66,1.59-3.19c0-1.78-0.52-2.97-1.55-3.56
			c-0.75-0.44-2.05-0.66-3.89-0.66H294.39z"/>
	</g>
	<g>
		<path class="st0" d="M349.5,414.02c2.78,0,4.7,1.5,5.76,4.49l8.62,24.57c0.37,1.06,0.56,1.87,0.56,2.43
			c0,1.06-0.37,1.92-1.12,2.57c-0.75,0.66-1.66,0.98-2.72,0.98c-1.97,0-3.34-1.23-4.12-3.68l-1.27-4.01h-12.09l-1.41,4.28
			c-0.75,2.27-2,3.4-3.75,3.4c-1.09,0-1.98-0.34-2.67-1.01c-0.69-0.67-1.03-1.55-1.03-2.64c0-0.81,0.12-1.56,0.37-2.25l8.9-24.1
			C344.8,415.71,346.78,414.02,349.5,414.02z M349.26,422.5l-3.89,12h7.73l-3.75-12H349.26z"/>
	</g>
	<g>
		<path class="st0" d="M396.27,435.16v8.41c0,3.67-1.3,5.51-3.89,5.51c-2.59,0-3.89-1.84-3.89-5.52v-23.59
			c0-2.03,0.39-3.45,1.17-4.26c0.78-0.81,2.19-1.22,4.22-1.22h6.05c3.75,0,6.78,0.81,9.09,2.44c2.62,1.88,3.94,4.63,3.94,8.25
			c0,2.53-0.73,4.6-2.18,6.21c-1.45,1.61-3.44,2.62-5.98,3.02l6.14,6.84c1.53,1.72,2.3,3.2,2.3,4.45c0,1.06-0.35,1.94-1.05,2.62
			c-0.7,0.69-1.59,1.03-2.65,1.03c-1.31,0-2.7-0.92-4.17-2.76L396.27,435.16z M396.27,430h3.61c3.31,0,4.97-1.42,4.97-4.26
			c0-2.72-1.62-4.08-4.87-4.08h-3.7V430z"/>
	</g>
	<g>
		<path class="st0" d="M438.31,443.55v-23.96c0-3.68,1.3-5.52,3.89-5.52c2.59,0,3.89,1.84,3.89,5.53v7.45l9.93-10.22
			c1.78-1.84,3.2-2.76,4.27-2.76c1,0,1.89,0.36,2.67,1.08c0.78,0.72,1.17,1.58,1.17,2.58c0,0.72-0.37,1.52-1.12,2.39
			c-0.03,0.03-0.69,0.69-1.96,1.97l-7.84,7.8l10.43,11.77c1.3,1.46,1.95,2.74,1.95,3.83c0,0.93-0.37,1.76-1.1,2.5
			c-0.73,0.73-1.57,1.1-2.51,1.1c-1.25,0-2.66-0.9-4.22-2.71l-10.31-11.96l-1.36,1.12v8.04c0,3.68-1.3,5.51-3.89,5.51
			C439.6,449.08,438.31,447.23,438.31,443.55z"/>
	</g>
	<g>
		<path class="st0" d="M489.3,419.6c0-3.69,1.3-5.53,3.89-5.53s3.89,1.85,3.89,5.54v21.92h6.61c3.69,0,5.53,1.19,5.53,3.58
			c0,2.39-1.84,3.59-5.53,3.59h-9.09c-1.97,0-3.34-0.34-4.12-1.01c-0.78-0.67-1.17-1.98-1.17-3.91V419.6z"/>
	</g>
	<g>
		<path class="st0" d="M546.71,414.49c3.69,0,5.53,1.22,5.53,3.66c0,2.41-1.84,3.61-5.53,3.61h-6.37v6.09h5.48
			c3.69,0,5.53,1.2,5.53,3.59s-1.84,3.59-5.53,3.59h-5.48v6.51h6.61c3.69,0,5.53,1.19,5.53,3.58c0,2.39-1.84,3.59-5.53,3.59h-9.09
			c-1.97,0-3.34-0.34-4.12-1.01c-0.78-0.67-1.17-1.98-1.17-3.91v-23.81c0-2.03,0.39-3.45,1.17-4.26c0.78-0.81,2.19-1.22,4.22-1.22
			H546.71z"/>
	</g>
</g>
<g>
	<g>
		<path class="st1" d="M291.9,447.58c-1.97,0-3.34-0.34-4.12-1.01c-0.78-0.67-1.17-1.98-1.17-3.91v-23.81
			c0-2.03,0.39-3.45,1.17-4.26c0.78-0.81,2.19-1.22,4.22-1.22h6.37c3.09,0,5.72,0.64,7.87,1.92c2.62,1.53,3.94,3.73,3.94,6.61
			c0,3.72-1.34,6.23-4.03,7.55v0.14c2,0.63,3.44,1.54,4.31,2.74c0.87,1.2,1.31,2.85,1.31,4.94c0,3.47-1.2,6.11-3.61,7.92
			c-2.13,1.59-4.98,2.39-8.58,2.39H291.9z M294.38,420.02v6.7h3.37c1.53,0,2.61-0.19,3.23-0.56c0.87-0.5,1.31-1.44,1.31-2.81
			c0-2.22-1.52-3.33-4.55-3.33H294.38z M294.38,432.81v8.06h3.89c1.66,0,2.89-0.22,3.7-0.66c1.06-0.59,1.59-1.66,1.59-3.19
			c0-1.78-0.52-2.97-1.55-3.56c-0.75-0.44-2.05-0.66-3.89-0.66H294.38z"/>
	</g>
	<g>
		<path class="st1" d="M349.5,412.9c2.78,0,4.7,1.5,5.76,4.49l8.62,24.57c0.37,1.06,0.56,1.87,0.56,2.43c0,1.06-0.37,1.92-1.12,2.57
			c-0.75,0.66-1.66,0.98-2.72,0.98c-1.97,0-3.34-1.23-4.12-3.68l-1.27-4.01h-12.09l-1.41,4.28c-0.75,2.27-2,3.4-3.75,3.4
			c-1.09,0-1.98-0.34-2.67-1.01c-0.69-0.67-1.03-1.55-1.03-2.64c0-0.81,0.12-1.56,0.37-2.25l8.9-24.1
			C344.8,414.58,346.78,412.9,349.5,412.9z M349.26,421.38l-3.89,12h7.73l-3.75-12H349.26z"/>
	</g>
	<g>
		<path class="st1" d="M396.27,434.03v8.41c0,3.67-1.3,5.51-3.89,5.51c-2.59,0-3.89-1.84-3.89-5.52v-23.59
			c0-2.03,0.39-3.45,1.17-4.26c0.78-0.81,2.19-1.22,4.22-1.22h6.05c3.75,0,6.78,0.81,9.09,2.44c2.62,1.88,3.94,4.63,3.94,8.25
			c0,2.53-0.73,4.6-2.18,6.21c-1.45,1.61-3.44,2.62-5.98,3.02l6.14,6.84c1.53,1.72,2.3,3.2,2.3,4.45c0,1.06-0.35,1.94-1.05,2.62
			c-0.7,0.69-1.59,1.03-2.65,1.03c-1.31,0-2.7-0.92-4.17-2.76L396.27,434.03z M396.27,428.88h3.61c3.31,0,4.97-1.42,4.97-4.26
			c0-2.72-1.62-4.08-4.87-4.08h-3.7V428.88z"/>
	</g>
	<g>
		<path class="st1" d="M438.31,442.43v-23.96c0-3.68,1.3-5.52,3.89-5.52c2.59,0,3.89,1.84,3.89,5.53v7.45l9.93-10.22
			c1.78-1.84,3.2-2.76,4.27-2.76c1,0,1.89,0.36,2.67,1.08c0.78,0.72,1.17,1.58,1.17,2.58c0,0.72-0.37,1.52-1.12,2.39
			c-0.03,0.03-0.69,0.69-1.96,1.97l-7.84,7.8l10.43,11.77c1.3,1.46,1.95,2.74,1.95,3.83c0,0.93-0.37,1.76-1.1,2.5
			c-0.73,0.73-1.57,1.1-2.51,1.1c-1.25,0-2.66-0.9-4.22-2.71l-10.31-11.96l-1.36,1.12v8.04c0,3.68-1.3,5.51-3.89,5.51
			C439.6,447.95,438.31,446.11,438.31,442.43z"/>
	</g>
	<g>
		<path class="st1" d="M489.3,418.47c0-3.69,1.3-5.53,3.89-5.53s3.89,1.85,3.89,5.54v21.92h6.61c3.69,0,5.53,1.19,5.53,3.58
			s-1.84,3.59-5.53,3.59h-9.09c-1.97,0-3.34-0.34-4.12-1.01c-0.78-0.67-1.17-1.98-1.17-3.91V418.47z"/>
	</g>
	<g>
		<path class="st1" d="M546.71,413.37c3.69,0,5.53,1.22,5.53,3.66c0,2.41-1.84,3.61-5.53,3.61h-6.37v6.09h5.48
			c3.69,0,5.53,1.2,5.53,3.59c0,2.39-1.84,3.59-5.53,3.59h-5.48v6.51h6.61c3.69,0,5.53,1.19,5.53,3.58s-1.84,3.59-5.53,3.59h-9.09
			c-1.97,0-3.34-0.34-4.12-1.01c-0.78-0.67-1.17-1.98-1.17-3.91v-23.81c0-2.03,0.39-3.45,1.17-4.26c0.78-0.81,2.19-1.22,4.22-1.22
			H546.71z"/>
	</g>
</g>
<g>
	<g>
		<path class="st2" d="M509.83,398.9H329.25c-19.94,0-36.1-16.16-36.1-36.1V182.23c0-19.94,16.16-36.1,36.1-36.1h180.57
			c19.94,0,36.1,16.16,36.1,36.1v180.57C545.92,382.74,529.76,398.9,509.83,398.9z"/>
	</g>
	<g>
		<path class="st3" d="M403.67,282.11c0,45.43,18.34,86.62,48.11,116.79h58.05c19.94,0,36.1-16.16,36.1-36.1V182.23
			c0-19.94-16.16-36.1-36.1-36.1h-35.51C431.53,176.55,403.67,226.12,403.67,282.11z"/>
	</g>
	<g>
		<g>
			<path class="st4" d="M468.05,336.38c7.24-7.24,11.73-17.25,11.73-28.36h0.01c-0.01-0.72-0.03-1.44-0.07-2.21
				c-0.04-0.68-0.09-1.37-0.17-2.11l-0.01-0.07c-0.51-4.2-1.61-8.17-3.3-11.88c-1.68-3.7-3.95-7.14-6.78-10.29l0,0
				c-3.07-3.31-6.22-5.95-9.68-8.02c-3.46-2.06-7.27-3.56-11.69-4.59c-3.05-0.71-9.29-1.46-15.05-1.69
				c-4.3-0.17-8.26-0.07-10.25,0.53c-0.04,0.02-0.07,0.04-0.11,0.07c-0.68,0.47-1.03,1.62-1.13,2.91c-0.12,1.52,0.12,3.09,0.57,4.12
				c0.07,0.17,0.15,0.31,0.23,0.43c0.86,1.27,2.93,1.17,7.46,0.95c2.07-0.1,4.59-0.22,7.76-0.23c9.47-0.04,17.89,3.32,24.02,9.04
				c6.1,5.69,9.91,13.68,10.23,22.97v0.09c-0.11,8.9-3.72,16.97-9.54,22.79c-5.78,5.78-13.74,9.36-22.63,9.36v-0.01l-4.49,0
				l-4.24-0.02c-1.42-0.01-2.84-0.02-4.25-0.04c-1.27-0.01-2.48-0.12-3.74-0.23c-4.6-0.41-9.99-0.88-10.51,3.89
				c-0.21,1.89,0.09,3.02,0.79,3.63c0.81,0.71,2.28,1.01,4.22,1.1c4.56,0.22,9.5,0.04,14.36-0.15c2.57-0.1,5.12-0.19,7.66-0.23
				c0.07-0.01,0.14-0.01,0.2-0.01C450.73,348.14,460.78,343.65,468.05,336.38z"/>
		</g>
		<g>
			<g>
				<g>
					<path class="st4" d="M463.47,227.8c-1.57,5.35,0.91,11.79,3.13,16.64c3.91,8.47,9.73,15.85,14.73,23.67
						c5.41,8.75,7.95,12.91,7.51,23.51c-0.1,2.52-0.06,6.18,3.47,5.99c6.38-0.35,2.18-16.34,0.82-19.96
						c-1.09-2.9-2.45-5.63-3.87-8.38c-2.8-5.11-6.89-10.21-10.23-15.08c-4.08-5.96-12.3-18.28-9.42-25.69
						c3.51-5.03,6.16-0.99,9.54-3.67c3.37-2.68-2.29-5.25-4.84-5.24c-3.14,0.01-5.95,1.77-8.23,3.77
						C464.85,224.66,464.01,226.08,463.47,227.8z"/>
				</g>
				<g>
					<path class="st0" d="M492.05,298.66c-1.16,0-2.11-0.36-2.83-1.07c-1.42-1.4-1.52-3.72-1.43-6.02
						c0.42-10.34-2.01-14.28-7.35-22.92c-1.47-2.3-3.05-4.61-4.57-6.85c-3.65-5.36-7.43-10.9-10.22-16.93
						c-2.35-5.13-4.84-11.73-3.19-17.37l0.01-0.02c0.58-1.85,1.51-3.44,2.85-4.85c3.16-2.78,6.07-4.1,8.99-4.1c0,0,0,0,0.01,0
						c1.87,0,5.94,1.31,6.78,3.71c0.24,0.7,0.4,2.07-1.29,3.41c-1.75,1.39-3.42,1.29-4.76,1.21c-1.65-0.1-2.86-0.17-4.5,2.13
						c-2.61,7.11,6.07,19.81,9.35,24.6c1.02,1.48,2.09,2.96,3.22,4.53c2.5,3.46,5.09,7.04,7.06,10.64c1.6,3.1,2.88,5.72,3.94,8.52
						c0.86,2.27,4.56,14.79,1.49,19.5c-0.75,1.15-1.87,1.8-3.23,1.88C492.26,298.66,492.16,298.66,492.05,298.66z M464.48,228.1
						c-1.45,4.97,0.88,11.1,3.08,15.89c2.71,5.87,6.44,11.34,10.04,16.63c1.53,2.25,3.12,4.58,4.61,6.91
						c5.41,8.75,8.13,13.14,7.68,24.12c-0.05,1.14-0.14,3.5,0.8,4.44c0.35,0.34,0.87,0.49,1.56,0.45c0.69-0.04,1.2-0.33,1.58-0.92
						c2.2-3.38-0.32-13.97-1.69-17.61c-1.02-2.7-2.27-5.26-3.83-8.27c-1.9-3.46-4.45-6.98-6.91-10.39
						c-1.09-1.51-2.22-3.06-3.25-4.57c-3.8-5.55-12.69-18.55-9.53-26.67l0.12-0.22c2.35-3.37,4.61-3.24,6.42-3.13
						c1.23,0.07,2.2,0.13,3.33-0.76c0.77-0.61,0.65-0.95,0.61-1.07c-0.38-1.09-3.18-2.3-4.79-2.3c0,0,0,0-0.01,0
						c-2.38,0-4.85,1.15-7.53,3.51C465.72,225.27,464.97,226.55,464.48,228.1z"/>
				</g>
			</g>
			<g>
				<g>
					<path class="st4" d="M371.74,337.73c-0.99,2.9-1.28,6.21,0.04,9.07c1.59,3.43,5.72,4.13,9.09,4.17
						c3.6,0.04,16.9,0.62,19.33-0.97c1.92-1.25,2.35-4.5-1.02-5.05c-3.38-0.55-12.57,0-16.42,0.14c-1.23,0.04-4.04,0.27-5-0.57
						c-1.89-1.64,0.18-7.46,1.63-9.05c1.78-1.94,5.35-1.9,7.81-2.03c1.72-0.1,3.52-0.24,4.72-1.6c7.85-9.68,9.53-26.47,11.09-38.58
						c0.94-7.17,3.86-24.49,0.22-30.53c-5.09-7.8-17.83-11.83-26.71-12.49c-8.05-0.59-14.27-1.07-18.71-8.85
						c-0.51-0.97-3.57-7.34-2.52-7.97c2.61-1.54,5.47-0.97,6.39-4.53c0.27-1.09,0.5-3.01,1.77-3.25c1.77-0.04,8.27,0.68,9.34-0.29
						c1.56-1.77,3.13-8.37,4.22-11.07c5.01-10.22,10.18-8.95,14.99,0.47c2.19,4.29,4.04,10.83,5.49,15.53
						c2.36,7.65,6.3,19.47,13.51,23.79c5.65,3.39,11.06,0.55,15.49-3.4c5.13-4.72,6.87-10.59,4.54-17.24
						c-2.49-6.91-8.96-13.32-14.23-18.3c-3.09-2.91-11.58-10.87-16.04-9.83c-2.58,0.71-0.43,4.53,0.81,5.71
						c2.35,2.19,5.75,4.11,8.41,6.16c6.08,4.68,17.4,14.11,16.04,22.69c-0.62,3.48-3.14,6.31-6.07,8.14
						c-5.44,3.4-8.66-0.99-11.32-5.28c-3.61-6.15-5.66-14.74-8.03-21.55c-2.48-7.03-8.76-23.54-18.81-20.07
						c-0.71,0.25-1.37,0.51-2.06,0.83c-3.94,1.88-6.53,6.12-8.09,10.04c-0.68,1.78-1.24,3.6-1.92,5.38
						c-0.34,0.88-0.77,1.92-1.55,2.5c-0.97,0.65-2.8,0.47-3.93,0.43c-1.76-0.04-3.49-0.18-5.26-0.16c-2.55,0.12-4.63,0.52-6.81,1.93
						c-5.46,4.17-3.33,13.77-0.86,19.04c2.71,5.76,5.43,9.95,11.44,12.66c4.56,2.01,13,2.34,18.2,3.22
						c6.21,1.08,12.75,2.9,16.64,8.24c4.22,5.95-2.14,41.17-4.04,49.44c-0.81,3.33-2.38,9.33-4.87,11.74
						c-1.79,1.39-4.85,1.49-7.07,1.94c-0.31,0.07-0.62,0.14-0.93,0.21c-2.6,0.69-4.22,1.83-5.99,3.88
						C373.36,334.02,372.46,335.78,371.74,337.73z"/>
				</g>
				<g>
					<path class="st0" d="M389.3,352.14c-1.95,0-4.1-0.03-6.42-0.09c-0.83-0.02-1.52-0.04-2.02-0.04
						c-5.22-0.06-8.59-1.67-10.03-4.78c-1.28-2.76-1.3-6.26-0.08-9.85l0.01-0.03c0.85-2.29,1.85-4.08,3.14-5.62
						c2-2.32,3.83-3.5,6.53-4.22c0.34-0.08,0.66-0.15,0.97-0.22c0.57-0.12,1.18-0.21,1.81-0.3c1.71-0.26,3.65-0.55,4.8-1.4
						c2.4-2.38,4-9,4.54-11.19c2.61-11.33,7.86-43.44,4.21-48.58c-3.7-5.08-10.15-6.8-15.96-7.81c-1.54-0.26-3.4-0.48-5.36-0.7
						c-4.57-0.53-9.76-1.13-13.08-2.59c-6.13-2.76-9.03-6.92-11.97-13.17c-2.32-4.94-5.06-15.55,1.17-20.32
						c2.64-1.71,5.11-2.03,7.4-2.14c1.19-0.01,2.32,0.03,3.41,0.08c0.64,0.03,1.28,0.06,1.92,0.07l0.48,0.02
						c0.85,0.04,2.28,0.1,2.84-0.27c0.53-0.39,0.89-1.32,1.16-2c0.34-0.89,0.65-1.8,0.97-2.7c0.31-0.9,0.62-1.79,0.96-2.68
						c1.45-3.67,4.12-8.47,8.62-10.62c0.77-0.35,1.45-0.63,2.17-0.87c11.45-3.95,18,14.62,20.15,20.72
						c0.66,1.89,1.28,3.87,1.93,5.96c1.7,5.43,3.46,11.05,6.01,15.41c1.58,2.54,3.48,5.33,5.84,5.88c1.23,0.29,2.54-0.03,4.02-0.95
						c3.05-1.91,5.09-4.62,5.59-7.43c0.9-5.69-4.36-12.98-15.65-21.67c-1.01-0.78-2.17-1.56-3.29-2.32c-1.82-1.23-3.7-2.51-5.2-3.9
						c-1.04-1-2.77-3.66-2.26-5.65c0.23-0.92,0.91-1.58,1.9-1.85c4.58-1.06,11.92,5.24,17.04,10.08
						c5.69,5.38,11.97,11.7,14.49,18.71c2.41,6.9,0.75,13.25-4.82,18.37c-6.13,5.46-11.61,6.61-16.75,3.53
						c-7.91-4.74-12.01-18.01-13.98-24.38l-0.61-1.99c-1.32-4.34-2.96-9.74-4.82-13.37c-2.36-4.61-4.72-7.04-6.83-7.04
						c-0.01,0-0.02,0-0.02,0c-2.01,0.02-4.17,2.28-6.26,6.56c-0.32,0.79-0.73,2.12-1.17,3.52c-0.99,3.16-2.02,6.44-3.2,7.78
						l-0.09,0.09c-0.96,0.86-3.21,0.89-7.91,0.64c-0.83-0.04-1.55-0.08-2-0.08c0,0,0,0,0,0c-0.38,0.17-0.64,1.35-0.77,1.93
						c-0.04,0.19-0.08,0.36-0.12,0.52c-0.77,3.01-2.82,3.67-4.62,4.25c-0.65,0.21-1.33,0.43-1.97,0.76c0.08,1.2,1.7,5,2.62,6.73
						c4.15,7.29,9.9,7.71,17.85,8.29c9.65,0.72,22.38,5.09,27.52,12.97c3.48,5.77,1.48,20.17,0.28,28.78
						c-0.13,0.91-0.24,1.74-0.34,2.46l-0.3,2.34c-1.55,12.23-3.48,27.46-11.02,36.76c-1.55,1.76-3.82,1.89-5.48,1.98l-0.79,0.04
						c-2.23,0.1-5,0.23-6.31,1.65c-0.91,1-2.22,4.24-2.1,6.36c0.03,0.57,0.17,0.99,0.39,1.18c0.54,0.47,3,0.36,3.81,0.33l0.47-0.02
						c0.66-0.02,1.49-0.06,2.42-0.1c4.5-0.2,11.31-0.5,14.2-0.03c1.8,0.29,3,1.3,3.31,2.77c0.33,1.54-0.45,3.27-1.88,4.21
						C399.3,351.84,395.2,352.14,389.3,352.14z M372.73,338.08c-1.05,3.07-1.04,6.01,0,8.27c1.07,2.31,3.81,3.51,8.14,3.56
						c0.51,0.01,1.21,0.02,2.05,0.04c4.07,0.09,14.88,0.35,16.7-0.84c0.7-0.46,1.12-1.32,0.97-2.01c-0.16-0.74-0.95-1.02-1.59-1.13
						c-2.68-0.44-9.36-0.14-13.77,0.05c-0.94,0.04-1.77,0.08-2.44,0.1l-0.45,0.02c-2.08,0.09-4.2,0.1-5.28-0.84
						c-0.67-0.58-1.04-1.47-1.11-2.65c-0.15-2.62,1.33-6.46,2.65-7.9c1.89-2.07,5.29-2.22,7.76-2.33l0.77-0.04
						c1.73-0.1,3.12-0.25,3.99-1.24c7.14-8.8,9.03-23.7,10.54-35.67l0.3-2.35c0.1-0.73,0.21-1.56,0.34-2.48
						c1.08-7.78,3.1-22.27,0.02-27.37c-4.73-7.25-16.74-11.3-25.89-11.99c-7.95-0.58-14.82-1.08-19.54-9.37
						c-1.62-3.05-4.02-8.29-2.14-9.4c0.92-0.54,1.85-0.85,2.68-1.11c1.71-0.56,2.74-0.89,3.23-2.77c0.03-0.13,0.07-0.29,0.1-0.46
						c0.27-1.21,0.71-3.24,2.5-3.56l0.17-0.02c0.51-0.01,1.29,0.03,2.27,0.09c1.67,0.09,5.53,0.3,6.38-0.1
						c0.88-1.12,1.93-4.47,2.7-6.93c0.45-1.45,0.88-2.81,1.26-3.75c2.57-5.25,5.23-7.78,8.17-7.8c0.02,0,0.03,0,0.04,0
						c3.03,0,5.88,2.68,8.7,8.19c1.94,3.8,3.61,9.3,4.96,13.71l0.61,1.98c1.89,6.13,5.83,18.87,13.05,23.2
						c4.31,2.58,8.84,1.54,14.25-3.28c4.96-4.56,6.39-9.98,4.25-16.11c-2.37-6.56-8.45-12.67-13.96-17.88
						c-9.18-8.67-13.27-9.98-15.08-9.57c-0.31,0.09-0.35,0.22-0.37,0.33c-0.22,0.88,0.87,2.84,1.67,3.6
						c1.37,1.27,3.18,2.5,4.93,3.69c1.15,0.78,2.33,1.58,3.39,2.39c12.11,9.32,17.49,17.07,16.44,23.69c-0.61,3.42-3,6.64-6.55,8.87
						c-1.95,1.22-3.84,1.63-5.61,1.22c-3.15-0.73-5.35-3.91-7.17-6.84c-2.69-4.59-4.49-10.32-6.22-15.87
						c-0.65-2.08-1.26-4.04-1.91-5.89c-5.31-15.05-11.19-21.59-17.48-19.42c-0.65,0.22-1.27,0.48-1.96,0.79
						c-3.86,1.84-6.24,6.17-7.55,9.47c-0.33,0.85-0.63,1.72-0.93,2.6c-0.32,0.93-0.64,1.85-0.99,2.77
						c-0.34,0.88-0.85,2.19-1.92,2.97c-1.17,0.78-2.89,0.71-4.14,0.65l-0.44-0.02c-0.65-0.02-1.31-0.05-1.96-0.08
						c-1.12-0.05-2.17-0.1-3.25-0.08c-2.27,0.11-4.22,0.45-6.25,1.76c-4.72,3.62-2.88,12.58-0.48,17.71
						c2.79,5.95,5.36,9.64,10.92,12.15c3.02,1.33,8.04,1.91,12.46,2.42c1.99,0.23,3.87,0.45,5.48,0.72
						c6.23,1.08,13.16,2.96,17.31,8.66c5.21,7.34-3.77,49.87-3.87,50.3c-1.07,4.43-2.63,9.81-5.16,12.26l-0.09,0.08
						c-1.57,1.22-3.83,1.55-5.82,1.85c-0.59,0.09-1.16,0.17-1.69,0.28c-0.29,0.06-0.59,0.13-0.89,0.2c-2.25,0.6-3.73,1.56-5.44,3.54
						C374.38,334.44,373.5,336.03,372.73,338.08z"/>
				</g>
			</g>
			<g>
				<g>
					<path class="st4" d="M384.81,225.43c6.14-1.07,4.66-9.15-0.93-8.17c-2.16,0.38-3.22,2.02-3.29,4.12
						c0.09,1.97,1.48,3.95,3.57,4.06L384.81,225.43z"/>
				</g>
				<g>
					<path class="st0" d="M384.18,225.8c-2.34-0.12-3.83-2.33-3.93-4.39c0.08-2.48,1.38-4.1,3.58-4.49c1.73-0.3,3.29,0.21,4.29,1.41
						c1,1.2,1.3,2.93,0.76,4.42c-0.59,1.61-2.01,2.69-4,3.03l-0.05,0L384.18,225.8z M384.8,217.53c-0.28,0-0.56,0.03-0.85,0.08
						c-2.52,0.44-2.96,2.56-3,3.79c0.08,1.72,1.32,3.59,3.24,3.7l0.59-0.02c1.72-0.3,2.94-1.22,3.44-2.58
						c0.46-1.25,0.21-2.72-0.64-3.73C386.9,217.96,385.93,217.53,384.8,217.53z"/>
				</g>
			</g>
		</g>
	</g>
	<g>
		<g>
			<path class="st5" d="M465.33,332.63c7.24-7.24,11.73-17.25,11.73-28.36h0.01c-0.01-0.72-0.03-1.44-0.07-2.21
				c-0.04-0.68-0.09-1.37-0.17-2.11l-0.01-0.07c-0.51-4.2-1.61-8.17-3.3-11.88c-1.68-3.7-3.95-7.14-6.78-10.29l0,0
				c-3.07-3.31-6.22-5.95-9.68-8.02c-3.46-2.06-7.27-3.56-11.69-4.59c-3.05-0.71-9.29-1.46-15.05-1.69
				c-4.3-0.17-8.26-0.07-10.25,0.53c-0.04,0.02-0.07,0.04-0.11,0.07c-0.68,0.47-1.03,1.62-1.13,2.91c-0.12,1.52,0.12,3.09,0.57,4.12
				c0.07,0.17,0.15,0.31,0.23,0.43c0.86,1.27,2.93,1.17,7.46,0.95c2.07-0.1,4.59-0.22,7.76-0.23c9.47-0.04,17.89,3.32,24.02,9.04
				c6.1,5.69,9.91,13.68,10.23,22.97v0.09c-0.11,8.9-3.72,16.97-9.54,22.79c-5.78,5.78-13.74,9.36-22.63,9.36v-0.01l-4.49,0
				l-4.24-0.02c-1.42-0.01-2.84-0.02-4.25-0.04c-1.27-0.01-2.48-0.12-3.74-0.23c-4.6-0.41-9.99-0.88-10.51,3.89
				c-0.21,1.89,0.09,3.02,0.79,3.63c0.81,0.71,2.28,1.01,4.22,1.1c4.56,0.22,9.5,0.04,14.36-0.15c2.57-0.1,5.12-0.19,7.66-0.23
				c0.07-0.01,0.14-0.01,0.2-0.01C448,344.39,458.05,339.91,465.33,332.63z"/>
		</g>
		<g>
			<g>
				<path class="st5" d="M460.75,224.05c-1.57,5.35,0.91,11.79,3.13,16.64c3.91,8.47,9.73,15.85,14.73,23.67
					c5.41,8.75,7.95,12.91,7.51,23.51c-0.1,2.52-0.06,6.18,3.47,5.99c6.38-0.35,2.18-16.34,0.82-19.96
					c-1.09-2.9-2.45-5.63-3.87-8.38c-2.8-5.11-6.89-10.21-10.23-15.08c-4.08-5.96-12.3-18.28-9.42-25.69
					c3.51-5.03,6.16-0.99,9.54-3.67c3.37-2.68-2.29-5.25-4.84-5.24c-3.14,0.01-5.95,1.77-8.23,3.77
					C462.12,220.91,461.29,222.34,460.75,224.05z"/>
				<path class="st6" d="M489.33,294.92c-1.16,0-2.11-0.36-2.83-1.07c-1.42-1.4-1.52-3.72-1.43-6.02
					c0.42-10.34-2.01-14.28-7.35-22.92c-1.47-2.3-3.05-4.61-4.57-6.85c-3.65-5.36-7.43-10.9-10.21-16.93
					c-2.35-5.13-4.84-11.73-3.19-17.37l0-0.02c0.58-1.85,1.51-3.44,2.85-4.85c3.16-2.78,6.07-4.1,8.99-4.1c0,0,0,0,0.01,0
					c1.87,0,5.94,1.31,6.78,3.71c0.24,0.7,0.4,2.07-1.29,3.41c-1.75,1.39-3.42,1.29-4.76,1.21c-1.65-0.1-2.86-0.17-4.5,2.13
					c-2.61,7.11,6.07,19.81,9.35,24.6c1.02,1.48,2.08,2.96,3.21,4.52c2.5,3.46,5.1,7.05,7.07,10.64c1.6,3.1,2.88,5.72,3.94,8.52
					c0.86,2.27,4.56,14.78,1.49,19.5c-0.75,1.15-1.87,1.8-3.23,1.88C489.54,294.92,489.43,294.92,489.33,294.92z M461.76,224.36
					c-1.45,4.97,0.88,11.1,3.08,15.89c2.71,5.87,6.44,11.34,10.04,16.63c1.53,2.25,3.12,4.58,4.61,6.91
					c5.41,8.75,8.13,13.14,7.68,24.12c-0.05,1.14-0.14,3.5,0.8,4.44c0.35,0.34,0.85,0.49,1.56,0.45c0.69-0.04,1.2-0.33,1.58-0.92
					c2.21-3.38-0.32-13.97-1.69-17.61c-1.02-2.7-2.27-5.26-3.83-8.27c-1.9-3.46-4.45-6.99-6.92-10.4c-1.09-1.5-2.21-3.06-3.25-4.56
					c-3.8-5.55-12.69-18.55-9.53-26.67l0.12-0.22c2.35-3.37,4.61-3.24,6.42-3.13c1.23,0.07,2.2,0.13,3.33-0.76
					c0.77-0.61,0.65-0.95,0.61-1.07c-0.38-1.09-3.18-2.3-4.79-2.3c0,0,0,0-0.01,0c-2.38,0-4.85,1.15-7.53,3.51
					C463,221.52,462.25,222.8,461.76,224.36z"/>
			</g>
			<g>
				<path class="st5" d="M369.02,333.99c-0.99,2.9-1.28,6.21,0.04,9.07c1.59,3.43,5.72,4.13,9.09,4.17
					c3.6,0.04,16.9,0.62,19.33-0.97c1.92-1.25,2.35-4.5-1.02-5.05c-3.38-0.55-12.57,0-16.42,0.14c-1.23,0.04-4.04,0.27-5-0.57
					c-1.89-1.64,0.18-7.46,1.63-9.05c1.78-1.94,5.35-1.9,7.81-2.03c1.72-0.1,3.52-0.24,4.72-1.6c7.85-9.68,9.53-26.47,11.09-38.58
					c0.94-7.17,3.86-24.49,0.22-30.53c-5.09-7.8-17.83-11.83-26.71-12.49c-8.05-0.59-14.27-1.07-18.71-8.85
					c-0.51-0.97-3.57-7.34-2.52-7.97c2.61-1.54,5.47-0.97,6.39-4.53c0.27-1.09,0.5-3.01,1.77-3.25c1.77-0.04,8.27,0.68,9.34-0.29
					c1.56-1.77,3.13-8.37,4.22-11.07c5.01-10.22,10.18-8.95,14.99,0.47c2.19,4.29,4.04,10.83,5.49,15.53
					c2.36,7.65,6.3,19.47,13.51,23.79c5.65,3.39,11.06,0.55,15.49-3.4c5.13-4.72,6.87-10.59,4.54-17.24
					c-2.49-6.91-8.96-13.32-14.23-18.3c-3.09-2.91-11.58-10.87-16.04-9.83c-2.58,0.71-0.43,4.53,0.81,5.71
					c2.35,2.19,5.75,4.11,8.41,6.16c6.08,4.68,17.4,14.11,16.04,22.69c-0.62,3.48-3.14,6.31-6.07,8.14
					c-5.44,3.4-8.66-0.99-11.32-5.28c-3.61-6.15-5.66-14.74-8.03-21.55c-2.48-7.03-8.76-23.54-18.81-20.07
					c-0.71,0.25-1.37,0.51-2.06,0.83c-3.94,1.88-6.53,6.12-8.09,10.04c-0.68,1.78-1.24,3.6-1.92,5.38c-0.34,0.88-0.77,1.92-1.55,2.5
					c-0.97,0.65-2.8,0.47-3.93,0.43c-1.76-0.04-3.49-0.18-5.26-0.16c-2.55,0.12-4.63,0.52-6.81,1.93
					c-5.46,4.17-3.33,13.77-0.86,19.04c2.71,5.76,5.43,9.95,11.44,12.66c4.56,2.01,13,2.34,18.2,3.22
					c6.21,1.08,12.75,2.9,16.64,8.24c4.22,5.95-2.14,41.17-4.04,49.44c-0.81,3.33-2.38,9.33-4.87,11.74
					c-1.79,1.39-4.85,1.49-7.07,1.94c-0.31,0.07-0.62,0.14-0.93,0.21c-2.6,0.69-4.22,1.83-5.99,3.88
					C370.64,330.27,369.74,332.04,369.02,333.99z"/>
				<path class="st6" d="M386.57,348.4c-1.95,0-4.09-0.03-6.4-0.09c-0.83-0.02-1.53-0.04-2.03-0.04c-5.22-0.06-8.59-1.67-10.03-4.78
					c-1.28-2.76-1.3-6.26-0.08-9.85l0.01-0.03c0.85-2.29,1.85-4.08,3.14-5.62c2-2.32,3.83-3.5,6.53-4.22
					c0.34-0.08,0.66-0.15,0.97-0.22c0.57-0.12,1.18-0.21,1.81-0.3c1.71-0.26,3.65-0.55,4.8-1.4c2.4-2.38,4.01-9,4.54-11.19
					c2.61-11.33,7.86-43.44,4.21-48.58c-3.7-5.08-10.15-6.8-15.96-7.81c-1.54-0.26-3.4-0.48-5.36-0.7
					c-4.57-0.53-9.76-1.13-13.08-2.59c-6.13-2.76-9.03-6.92-11.97-13.17c-2.32-4.94-5.06-15.55,1.17-20.32
					c2.64-1.71,5.11-2.03,7.4-2.14c1.18-0.02,2.32,0.03,3.41,0.08c0.64,0.03,1.28,0.06,1.92,0.07l0.48,0.02
					c0.85,0.04,2.28,0.1,2.84-0.27c0.53-0.39,0.89-1.32,1.16-2c0.34-0.89,0.65-1.79,0.96-2.69c0.31-0.9,0.62-1.79,0.96-2.68
					c1.45-3.67,4.12-8.47,8.62-10.61c0.77-0.35,1.45-0.63,2.17-0.88c11.45-3.95,18,14.61,20.15,20.72c0.66,1.89,1.28,3.87,1.93,5.96
					c1.7,5.43,3.46,11.05,6.01,15.41c1.58,2.54,3.48,5.33,5.84,5.88c1.23,0.29,2.54-0.03,4.02-0.95c3.05-1.91,5.09-4.62,5.59-7.43
					c0.9-5.69-4.36-12.98-15.65-21.67c-1.01-0.78-2.17-1.56-3.29-2.32c-1.82-1.23-3.7-2.51-5.2-3.9c-1.04-1-2.77-3.66-2.26-5.65
					c0.23-0.92,0.91-1.58,1.9-1.85c4.58-1.06,11.92,5.24,17.04,10.08c5.69,5.38,11.97,11.7,14.49,18.71
					c2.41,6.9,0.75,13.25-4.82,18.37c-6.13,5.46-11.61,6.61-16.75,3.53c-7.91-4.74-12.01-18.01-13.98-24.38l-0.61-1.99
					c-1.32-4.34-2.96-9.74-4.82-13.37c-2.37-4.63-4.77-7.07-6.85-7.04c-2.01,0.02-4.17,2.28-6.26,6.55
					c-0.32,0.79-0.73,2.11-1.17,3.52c-0.99,3.17-2.02,6.44-3.2,7.79l-0.09,0.09c-0.96,0.86-3.21,0.89-7.9,0.64
					c-0.83-0.04-1.56-0.08-2-0.08c0,0,0,0,0,0c-0.38,0.17-0.64,1.35-0.77,1.93c-0.04,0.19-0.08,0.36-0.12,0.52
					c-0.77,3.01-2.82,3.67-4.62,4.26c-0.65,0.21-1.33,0.43-1.97,0.76c0.08,1.2,1.7,5,2.62,6.73c4.15,7.29,9.9,7.71,17.85,8.29
					c9.65,0.72,22.38,5.09,27.52,12.97c3.48,5.77,1.48,20.17,0.28,28.78c-0.13,0.91-0.24,1.74-0.34,2.46l-0.3,2.34
					c-1.55,12.23-3.48,27.46-11.02,36.76c-1.55,1.77-3.82,1.89-5.48,1.98l-0.8,0.04c-2.23,0.1-5,0.23-6.3,1.65
					c-0.91,1-2.22,4.24-2.1,6.36c0.03,0.57,0.17,0.99,0.39,1.18c0.54,0.47,3,0.36,3.81,0.33l0.47-0.02c0.66-0.02,1.48-0.06,2.4-0.1
					c4.51-0.2,11.32-0.5,14.23-0.03c1.79,0.29,3,1.3,3.31,2.77c0.33,1.54-0.45,3.27-1.88,4.21
					C396.58,348.09,392.47,348.4,386.57,348.4z M370.01,334.34c-1.05,3.07-1.04,6.01,0,8.27c1.07,2.31,3.81,3.51,8.14,3.56
					c0.51,0.01,1.22,0.02,2.06,0.04c4.07,0.1,14.87,0.35,16.69-0.84c0.7-0.46,1.12-1.32,0.97-2.01c-0.16-0.74-0.95-1.02-1.59-1.12
					c-2.69-0.44-9.64-0.13-13.79,0.05c-0.93,0.04-1.75,0.08-2.42,0.1l-0.45,0.02c-2.08,0.09-4.2,0.1-5.28-0.84
					c-0.67-0.58-1.04-1.47-1.11-2.65c-0.15-2.62,1.33-6.46,2.65-7.9c1.89-2.06,5.28-2.22,7.76-2.33l0.78-0.04
					c1.73-0.09,3.12-0.25,3.99-1.24c7.14-8.8,9.03-23.7,10.54-35.67l0.3-2.35c0.1-0.73,0.21-1.56,0.34-2.48
					c1.08-7.78,3.1-22.27,0.02-27.37c-4.73-7.25-16.74-11.3-25.89-11.99c-7.95-0.58-14.82-1.08-19.54-9.37
					c-1.61-3.05-4.02-8.29-2.14-9.4c0.92-0.54,1.85-0.85,2.68-1.11c1.71-0.56,2.74-0.89,3.23-2.77c0.03-0.13,0.07-0.29,0.1-0.46
					c0.27-1.21,0.71-3.24,2.5-3.56l0.17-0.02c0.51-0.01,1.29,0.03,2.28,0.09c1.67,0.09,5.53,0.3,6.37-0.1
					c0.88-1.12,1.93-4.47,2.7-6.94c0.45-1.44,0.88-2.81,1.26-3.74c2.57-5.25,5.23-7.78,8.17-7.8c0.02,0,0.03,0,0.04,0
					c3.03,0,5.88,2.68,8.7,8.19c1.94,3.8,3.61,9.3,4.96,13.71l0.61,1.98c1.89,6.13,5.83,18.87,13.05,23.2
					c4.31,2.58,8.84,1.54,14.25-3.28c4.96-4.56,6.39-9.98,4.25-16.11c-2.37-6.56-8.44-12.67-13.96-17.88
					c-9.18-8.67-13.27-9.98-15.08-9.57c-0.31,0.09-0.35,0.22-0.37,0.33c-0.22,0.88,0.87,2.84,1.67,3.6c1.37,1.28,3.18,2.5,4.93,3.69
					c1.15,0.78,2.33,1.58,3.39,2.39c12.11,9.32,17.49,17.07,16.44,23.69c-0.61,3.42-3,6.64-6.55,8.87
					c-1.95,1.22-3.84,1.63-5.61,1.22c-3.15-0.73-5.35-3.91-7.17-6.84c-2.69-4.59-4.49-10.32-6.22-15.87
					c-0.65-2.08-1.26-4.04-1.91-5.89c-5.31-15.06-11.19-21.59-17.48-19.42c-0.65,0.22-1.27,0.48-1.96,0.79
					c-3.86,1.84-6.24,6.17-7.55,9.47c-0.33,0.85-0.63,1.73-0.93,2.6c-0.32,0.92-0.64,1.85-0.99,2.77c-0.34,0.88-0.85,2.19-1.92,2.97
					c-1.17,0.78-2.89,0.71-4.14,0.65l-0.44-0.02c-0.65-0.02-1.31-0.05-1.96-0.08c-1.12-0.05-2.17-0.1-3.25-0.08
					c-2.27,0.11-4.22,0.45-6.25,1.76c-4.72,3.62-2.88,12.58-0.48,17.71c2.79,5.95,5.36,9.64,10.92,12.14
					c3.02,1.33,8.04,1.91,12.47,2.42c1.99,0.23,3.87,0.45,5.48,0.72c6.23,1.08,13.16,2.96,17.31,8.66
					c5.21,7.34-3.77,49.88-3.87,50.3c-0.99,4.08-2.6,9.78-5.16,12.26l-0.09,0.08c-1.57,1.22-3.83,1.56-5.82,1.86
					c-0.59,0.09-1.16,0.17-1.69,0.28c-0.29,0.06-0.59,0.13-0.89,0.2c-2.25,0.6-3.73,1.56-5.44,3.54
					C371.66,330.7,370.77,332.28,370.01,334.34z"/>
			</g>
			<g>
				<path class="st5" d="M382.09,221.69c6.14-1.07,4.66-9.15-0.93-8.17c-2.16,0.38-3.22,2.02-3.29,4.12
					c0.09,1.97,1.48,3.95,3.57,4.06L382.09,221.69z"/>
				<path class="st6" d="M381.46,222.05c-2.35-0.12-3.83-2.33-3.93-4.39c0.08-2.48,1.38-4.1,3.58-4.49c1.73-0.3,3.29,0.21,4.29,1.41
					c1,1.2,1.3,2.93,0.76,4.42c-0.59,1.61-2.01,2.69-4,3.03l-0.05,0L381.46,222.05z M382.08,213.79c-0.28,0-0.56,0.03-0.85,0.08
					c-2.52,0.44-2.96,2.56-3,3.79c0.08,1.72,1.32,3.59,3.24,3.7l0.59-0.02c1.72-0.3,2.94-1.22,3.44-2.58
					c0.46-1.25,0.21-2.72-0.64-3.73C384.17,214.21,383.21,213.79,382.08,213.79z"/>
			</g>
		</g>
	</g>
</g>
</svg>
